<svg width="1088" height="300" viewBox="0 0 1088 300" fill="none" xmlns="http://www.w3.org/2000/svg">
<g clip-path="url(#clip0_102_223)">
<path d="M434.155 80.8813L435.814 71.6409C436.284 69.7498 434.155 68.7986 432.502 68.0965C423.499 64.7786 415.918 63.1196 408.336 63.1196C385.83 63.1196 374.223 78.0446 374.223 101.259V124.235L358.352 128.261V137.263C358.352 139.63 359.536 140.813 361.902 140.813H374.223V237.226C374.223 239.592 375.406 240.776 377.773 240.776H391.752C394.119 240.776 395.302 239.592 395.302 237.226V140.813H423.731C426.104 140.813 427.287 139.63 427.287 137.263V126.602C427.287 124.229 426.098 123.046 423.731 123.046H395.302V105.041C395.302 87.2736 400.755 81.3512 413.783 81.3512C418.284 81.3512 424.915 82.7724 430.599 84.6691C432.734 85.6203 433.679 83.4858 434.155 80.8813Z" fill="#052B3B"></path>
<path fill-rule="evenodd" clip-rule="evenodd" d="M550.35 173.738V173.5C550.35 152.658 539.451 120.679 496.573 120.685C463.173 120.685 441.38 141.057 441.38 182.038C441.38 228.704 472.651 243.154 498.707 243.154C522.635 243.154 538.03 232.73 545.611 226.807C547.508 225.624 548.691 224.203 547.746 222.306L542.774 213.779C541.353 211.407 539.694 209.986 537.798 211.407C530.454 217.091 517.664 224.197 502.976 224.673C480.232 225.143 465.069 216.616 463.178 190.322L534.242 189.846C546.562 189.846 550.35 183.686 550.35 173.738ZM495.865 139.386C519.555 139.386 527.844 150.761 529.265 173.5H463.173C465.069 149.097 475.963 139.386 495.865 139.386Z" fill="#052B3B"></path>
<path fill-rule="evenodd" clip-rule="evenodd" d="M673.221 173.5V173.738C673.221 183.686 669.433 189.846 657.112 189.846L586.049 190.322C587.94 216.616 603.103 225.143 625.847 224.673C640.534 224.197 653.325 217.091 660.668 211.407C662.565 209.986 664.224 211.407 665.645 213.779L670.616 222.306C671.562 224.203 670.378 225.624 668.482 226.807C660.9 232.73 645.505 243.154 621.578 243.154C595.521 243.154 564.25 228.704 564.25 182.038C564.25 141.057 586.043 120.685 619.443 120.685C662.321 120.679 673.221 152.658 673.221 173.5ZM652.136 173.5C650.714 150.761 642.425 139.386 618.736 139.386C598.839 139.386 587.94 149.097 586.043 173.5H652.136Z" fill="#052B3B"></path>
<path fill-rule="evenodd" clip-rule="evenodd" d="M794.432 225.149V126.602C794.432 124.229 793.011 123.284 790.882 123.057C776.19 121.636 757.477 120.691 745.87 120.691C710.573 120.691 687.121 142.959 687.121 182.044C687.121 208.814 696.599 243.159 734.263 243.159C752.262 243.159 766.004 231.552 773.347 223.495V232.26C773.347 270.637 763.161 282.244 729.761 282.244C720.289 282.244 707.968 279.402 701.1 277.505C698.971 276.791 698.02 278.688 697.55 281.293L695.891 290.771C695.421 292.662 697.55 293.845 699.209 294.321C706.553 296.688 719.813 300.006 732.371 300.006C777.854 300.006 794.432 281.531 794.432 225.149ZM773.347 140.338V204.533C765.296 212.828 751.554 224.435 738.288 224.435C712.464 224.435 708.676 199.086 708.676 182.033C708.676 152.183 722.418 139.392 745.632 139.392C753.683 139.392 763.393 139.624 773.347 140.338Z" fill="#052B3B"></path>
<path fill-rule="evenodd" clip-rule="evenodd" d="M808.333 182.033C808.333 137.501 832.73 120.679 866.606 120.679C900.244 120.679 924.641 138.922 924.641 182.033C924.641 221.593 900.244 243.148 866.606 243.148C832.73 243.148 808.333 221.593 808.333 182.033ZM903.086 182.033C903.086 150.999 888.874 139.392 866.606 139.392C844.099 139.392 829.888 150.999 829.888 182.033C829.888 212.59 844.099 224.673 866.606 224.673C888.874 224.673 903.086 212.59 903.086 182.033Z" fill="#052B3B"></path>
<path d="M1046.95 239.836L1086.86 125.22C1087.6 122.769 1086.62 121.053 1083.93 121.059H1067.76C1065.56 121.059 1064.1 122.038 1063.6 123.997L1034.46 216.571L1005.56 123.997C1005.08 122.038 1003.6 121.059 1001.4 121.059H986.951C984.256 121.059 983.277 122.774 984.013 125.22L994.051 154.606L973.725 217.058L944.583 123.997C944.096 122.038 942.623 121.059 940.421 121.059H924.256C921.561 121.059 920.581 122.774 921.317 125.22L961.234 239.836C961.97 241.795 963.199 242.774 965.402 242.774H980.338C982.54 242.774 983.763 241.795 984.5 239.836L1004.09 182.774L1023.68 239.836C1024.42 241.795 1025.64 242.774 1027.84 242.774H1042.78C1044.99 242.774 1046.21 241.795 1046.95 239.836Z" fill="#052B3B"></path>
<path d="M288.2 115.369C294.57 115.369 299.751 110.188 299.751 103.818V63.635C299.751 28.5477 271.209 0 236.122 0H63.635C28.5477 0 0 28.5477 0 63.635V149.878C0 156.248 5.18071 161.423 11.5504 161.423H90.971L119.66 229.678C121.608 234.315 126.217 237.141 131.137 236.722C136.08 236.371 140.242 232.906 141.487 228.104L172.028 110.511L190.458 154.351C192.264 158.643 196.442 161.423 201.108 161.423H276.656V236.122C276.656 258.469 258.475 276.656 236.122 276.656H63.635C41.2872 276.656 23.1009 258.475 23.1009 236.122V196.103C23.1009 189.733 17.9202 184.552 11.5504 184.552C5.18071 184.552 0 189.733 0 196.103V236.122C0 271.209 28.5477 299.751 63.635 299.751H236.122C271.209 299.751 299.757 271.203 299.757 236.122V149.878C299.757 143.509 294.576 138.328 288.206 138.328H208.78L180.091 70.0727C178.183 65.5318 173.591 62.7008 168.608 63.0235C163.665 63.3802 159.509 66.8453 158.264 71.641L127.723 189.229L109.299 145.4C107.493 141.102 103.314 138.322 98.6487 138.322H23.1009V63.635C23.1009 41.2872 41.2815 23.1065 63.635 23.1065H236.122C258.469 23.1065 276.656 41.2872 276.656 63.635V103.818C276.65 110.188 281.831 115.369 288.2 115.369Z" fill="url(#paint0_linear_102_223)"></path>
</g>
<defs>
<linearGradient id="paint0_linear_102_223" x1="18.5234" y1="282.217" x2="284.559" y2="14.1815" gradientUnits="userSpaceOnUse">
<stop stop-color="#00E969"></stop>
<stop offset="0.1379" stop-color="#00D58C"></stop>
<stop offset="0.3136" stop-color="#00C1B1"></stop>
<stop offset="0.4895" stop-color="#00B0CE"></stop>
<stop offset="0.6635" stop-color="#00A4E2"></stop>
<stop offset="0.8348" stop-color="#009DEF"></stop>
<stop offset="1" stop-color="#009BF3"></stop>
</linearGradient>
<clipPath id="clip0_102_223">
<rect width="1087.1" height="300" fill="white"></rect>
</clipPath>
</defs>
</svg>