<svg width="300" height="300" viewBox="0 0 300 300" fill="none" xmlns="http://www.w3.org/2000/svg">
<path d="M288.435 115.462C294.809 115.462 299.994 110.277 299.994 103.902V63.6867C299.994 28.5709 271.429 0 236.313 0H63.6867C28.5709 0 0 28.5709 0 63.6867V150C0 156.375 5.18492 161.554 11.5598 161.554H91.0449L119.757 229.865C121.707 234.506 126.319 237.333 131.244 236.914C136.191 236.563 140.355 233.095 141.602 228.289L172.168 110.6L190.612 154.477C192.42 158.772 196.602 161.554 201.271 161.554H276.88V236.313C276.88 258.679 258.685 276.88 236.313 276.88H63.6867C41.3207 276.88 23.1196 258.685 23.1196 236.313V196.262C23.1196 189.887 17.9347 184.702 11.5598 184.702C5.18492 184.702 0 189.887 0 196.262V236.313C0 271.429 28.5709 299.994 63.6867 299.994H236.313C271.429 299.994 300 271.423 300 236.313V150C300 143.625 294.815 138.44 288.44 138.44H208.949L180.237 70.1296C178.327 65.585 173.732 62.7517 168.745 63.0747C163.798 63.4317 159.639 66.8996 158.392 71.6992L127.827 189.383L109.388 145.518C107.58 141.217 103.398 138.435 98.7288 138.435H23.1196V63.6867C23.1196 41.3207 41.315 23.1253 63.6867 23.1253H236.313C258.679 23.1253 276.88 41.3207 276.88 63.6867V103.902C276.875 110.277 282.06 115.462 288.435 115.462Z" fill="url(#paint0_linear_102_217)"></path>
<defs>
<linearGradient id="paint0_linear_102_217" x1="18.5384" y1="282.447" x2="284.79" y2="14.193" gradientUnits="userSpaceOnUse">
<stop stop-color="#00E969"></stop>
<stop offset="0.1379" stop-color="#00D58C"></stop>
<stop offset="0.3136" stop-color="#00C1B1"></stop>
<stop offset="0.4895" stop-color="#00B0CE"></stop>
<stop offset="0.6635" stop-color="#00A4E2"></stop>
<stop offset="0.8348" stop-color="#009DEF"></stop>
<stop offset="1" stop-color="#009BF3"></stop>
</linearGradient>
</defs>
</svg>